PathFileType	4	(X/Y/Z)	Run_400 02
DataRate	CameraRate	NumFrames	NumMarkers	Units	OrigDataRate	OrigDataStartFrame	OrigNumFrames
100	100	6	45	mm	100	99	137
Frame#	Time	LASI			RASI			LPSI			RPSI			RTH1			RTH2			RTH3			LTH1			LTH2			LTH3			RTB1			RTB2			RTB3			RLMAL			RMMAL			LTB1			LTB2			LTB3			RCAL			RTOE			RMT5			LCAL			LTOE			LMT5			LACR			RACR			CLAV			C7			LPSH			RUA1			RUA2			RUA3			RLEL			RMEL			LUA1			LUA2			LUA3			LLEL			LMEL			RFAsuperior			RFAradius			RFAulna			LFAsuperior			LFAradius			LFAulna			
		X1	Y1	Z1	X2	Y2	Z2	X3	Y3	Z3	X4	Y4	Z4	X5	Y5	Z5	X6	Y6	Z6	X7	Y7	Z7	X8	Y8	Z8	X9	Y9	Z9	X10	Y10	Z10	X11	Y11	Z11	X12	Y12	Z12	X13	Y13	Z13	X14	Y14	Z14	X15	Y15	Z15	X16	Y16	Z16	X17	Y17	Z17	X18	Y18	Z18	X19	Y19	Z19	X20	Y20	Z20	X21	Y21	Z21	X22	Y22	Z22	X23	Y23	Z23	X24	Y24	Z24	X25	Y25	Z25	X26	Y26	Z26	X27	Y27	Z27	X28	Y28	Z28	X29	Y29	Z29	X30	Y30	Z30	X31	Y31	Z31	X32	Y32	Z32	X33	Y33	Z33	X34	Y34	Z34	X35	Y35	Z35	X36	Y36	Z36	X37	Y37	Z37	X38	Y38	Z38	X39	Y39	Z39	X40	Y40	Z40	X41	Y41	Z41	X42	Y42	Z42	X43	Y43	Z43	X44	Y44	Z44	X45	Y45	Z45	

99	1.09	934.5312699999999	1066.264946	-438.109776	944.780977	1057.176727	-208.011241	775.075797	1101.805335	-365.162202	779.976346	1098.947531	-274.289894	812.443125	797.455103	-172.0174	868.771899	717.576714	-203.004877	781.167336	633.830163	-212.597499	880.325121	844.720159	-487.323299	988.619624	764.359986	-485.830819	970.85051	654.795001	-461.012714	650.924025	462.466261	-264.767697	584.220658	501.735954	-231.765567	465.845609	456.477369	-276.46721	350.937782	488.742633	-271.041414	376.234613	449.307849	-343.147898	1073.182723	440.45062	-420.666657	1003.465492	326.821528	-434.543661	1078.926432	249.03277	-389.299907	330.695802	524.769036	-352.033827	301.596468	319.0834	-266.150506	283.252436	404.345396	-220.732585	989.69868	104.275178	-325.969879	1214.488614	85.05100400000001	-339.150919	1154.314788	54.798511	-404.846644	889.129833	1557.416214	-498.488177	934.712994	1545.564513	-187.239866	984.841796	1484.966334	-327.597154	874.146685	1578.518695	-337.06059	802.672958	1534.718842	-491.381913	876.078156	1417.1577	-87.460553	788.91369	1382.557999	-90.980895	789.675401	1330.511365	-43.405747	794.877918	1261.268214	-16.272633	747.018775	1252.619603	-94.24557900000001	770.338782	1470.214321	-547.35427	702.658093	1413.874147	-507.940931	681.62949	1375.376137	-568.911613	651.366159	1298.79725	-591.185745	644.9407619999999	1291.900019	-501.28027	839.914076	1206.529608	-52.220612	993.6287589999999	1234.642899	-176.035335	994.389501	1169.828317	-156.386637	714.984908	1227.771694	-568.31197	888.08596	1245.761312	-538.971188	875.023834	1179.423286	-548.457053	
100	1.1	932.623362	1058.155671	-438.924283	944.120913	1049.753261	-208.164535	773.054041	1093.978652	-364.445614	777.720155	1090.764625	-273.694775	819.415114	788.067676	-170.669601	880.102905	710.005262	-200.233935	796.047267	623.195254	-211.590098	876.2685289999999	836.3920450000001	-485.665326	984.978991	758.5062370000001	-478.535753	966.960149	647.4291899999999	-459.620382	669.6148020000001	458.503789	-262.058074	604.962705	501.226565	-228.796396	484.664443	462.567551	-273.466972	371.848157	500.928025	-267.705576	394.887664	460.698791	-340.065608	1061.709914	428.506163	-417.422196	986.3780410000001	319.153351	-433.695326	1053.981287	237.381926	-385.371952	352.60921	538.215707	-348.524207	316.026319	333.53799	-263.209005	301.475795	419.320099	-217.236666	953.365421	96.83936300000001	-323.38919	1180.012729	76.017132	-336.472614	1117.958787	52.972606	-404.265032	891.401841	1548.128943	-500.086453	933.3624129999999	1538.190163	-187.450626	984.890374	1477.085914	-327.516453	874.47933	1570.699473	-338.088518	805.077782	1523.958317	-494.58297	871.272604	1412.124121	-87.85169	783.8527790000001	1378.545854	-93.609657	782.7066170000001	1327.321418	-44.795415	785.723255	1258.269395	-16.299956	741.472502	1249.189969	-95.820032	774.597522	1458.216638	-552.397838	706.667907	1400.719943	-515.201782	688.541937	1361.41315	-576.524683	660.308266	1284.647491	-599.571001	651.6741060000001	1277.738199	-509.937428	829.683623	1200.114884	-48.772756	988.625121	1216.760404	-167.942873	985.77218	1152.507883	-146.424772	723.498658	1213.904959	-574.56091	895.778296	1232.478963	-540.156211	883.142607	1166.227869	-550.56086	
101	1.11	930.152729	1049.345887	-439.289272	943.346708	1041.672771	-208.398118	770.212582	1086.243324	-364.133912	774.797192	1082.275649	-273.233509	826.845235	778.364859	-169.205601	892.07658	702.456233	-197.095748	812.29371	612.422838	-209.963085	871.376975	827.695417	-485.156222	981.106187	751.178101	-473.616402	963.177192	639.713556	-458.542651	690.551341	454.103183	-258.852557	627.839577	499.569055	-225.350782	506.16905	466.728143	-269.882848	395.254855	510.036949	-263.848809	416.602042	469.645924	-336.544597	1048.844188	417.159939	-412.276378	966.3984850000001	313.715125	-431.044755	1025.33932	227.801642	-379.190599	376.617803	548.820166	-344.217154	334.91833	344.563077	-260.62818	322.730111	430.251487	-213.777044	912.4356	91.573656	-319.855067	1140.827717	71.51666899999999	-334.119798	1077.572384	54.09304	-402.768286	893.72885	1538.558124	-501.677281	931.591801	1529.957215	-187.409901	985.0967900000001	1468.343098	-327.337071	874.777006	1562.006903	-339.304703	807.7328189999999	1512.178175	-497.702564	865.975048	1405.680173	-88.238101	778.357486	1373.22782	-96.379259	775.1661	1323.001147	-46.329336	775.820379	1254.341993	-16.255907	735.269757	1244.693009	-97.37889199999999	779.344047	1445.213819	-557.667749	711.227197	1386.528881	-522.697244	696.391647	1346.411995	-584.236861	670.27225	1269.708417	-608.35682	659.25352	1262.71241	-518.8660630000001	818.701727	1193.002095	-45.284709	982.489946	1198.065189	-158.640396	976.071308	1134.672844	-135.476645	732.969256	1199.181371	-581.043822	904.146612	1218.270444	-541.397514	892.0213659999999	1152.096725	-552.74324	
102	1.12	926.697315	1040.51966	-439.309496	941.917535	1033.218895	-208.468999	766.326871	1079.409819	-363.757559	771.300732	1074.197771	-272.66153	834.796543	769.142188	-168.090828	904.5953009999999	695.469329	-194.004231	829.923463	602.019978	-207.797707	866.638785	820.502181	-485.711265	976.746817	742.851976	-472.575253	958.617629	632.3379619999999	-457.234406	713.744279	449.84808	-255.869853	652.74531	496.725812	-221.724929	530.201602	468.896671	-266.140494	420.83258	515.853041	-259.471259	440.915803	476.042853	-332.795479	1035.104748	408.445645	-406.208656	944.9941250000001	311.638094	-427.265458	996.125491	221.983774	-372.541041	402.521731	556.445241	-339.088413	357.414752	351.817943	-258.451668	346.843948	436.962309	-210.310163	871.447508	89.74575	-316.149934	1100.911973	69.629199	-331.821838	1036.871366	55.558156	-400.174412	896.104032	1529.309707	-503.388452	929.437232	1521.55837	-187.202746	985.508013	1459.279434	-326.993418	875.112568	1553.197107	-340.868463	810.523636	1500.431984	-501.071705	860.163105	1398.107433	-88.622102	772.298155	1366.931659	-99.24296099999999	766.905863	1317.936711	-48.120594	765.239158	1249.886383	-16.403499	727.929745	1239.448709	-98.573666	784.73993	1431.521951	-563.10696	716.305034	1371.720924	-530.1875230000001	705.226711	1330.742658	-591.885545	681.386536	1254.366228	-617.212318	667.7851889999999	1247.128262	-527.887414	807.016707	1185.540712	-41.988489	975.1421309999999	1178.939613	-148.556451	965.308478	1116.767286	-123.599195	743.5713490000001	1183.985338	-587.656287	913.303343	1203.565488	-542.558984	901.836138	1137.449543	-554.9506	
103	1.13	922.341588	1032.395556	-439.6009	939.203813	1025.020213	-208.055931	761.778087	1073.817218	-362.785717	767.446493	1067.355427	-271.71273	843.184991	761.441967	-167.507689	917.550043	690.160106	-191.24162	848.919732	593.145235	-205.253541	862.011194	815.59129	-486.541138	970.7980209999999	734.5426670000001	-474.133818	951.9403119999999	625.774244	-455.427508	739.085183	446.451781	-253.703557	679.485582	493.259257	-218.202317	556.485542	469.237332	-262.681956	448.086348	518.279714	-254.634543	467.195688	479.884864	-329.002473	1020.510011	402.6263	-401.070837	923.516087	312.048136	-423.974296	967.96744	219.445808	-367.741603	429.6737	560.972882	-333.19337	382.962412	355.03521	-256.81435	373.666919	439.196385	-206.811741	832.663824	90.73903799999999	-313.155997	1062.509432	68.30231999999999	-329.696951	997.722739	56.152141	-397.394139	898.755906	1520.928925	-505.276816	927.021091	1513.825061	-186.922561	985.981891	1450.79195	-326.370478	875.624917	1545.443283	-342.65197	813.538853	1490.074982	-504.971307	853.916388	1390.25225	-89.061468	765.639757	1360.318302	-102.254288	757.976461	1312.699736	-50.357518	754.3462919999999	1245.461914	-17.121406	719.735057	1233.928033	-99.659071	791.112842	1417.805978	-568.396477	722.058806	1356.766224	-537.577283	715.113997	1314.915793	-599.409846	694.011095	1239.043687	-625.688791	677.490213	1231.310477	-536.8236429999999	794.843201	1178.31428	-39.128669	966.609507	1159.797567	-138.077627	953.463048	1099.275172	-110.95235	755.592363	1168.894097	-594.140269	923.510446	1188.960313	-543.171441	912.886936	1122.889523	-556.933817	
104	1.14	917.642826	1025.503963	-440.742592	935.2858	1017.779797	-207.189113	757.580837	1069.369803	-361.318788	763.699335	1062.311675	-270.510601	851.867466	756.025334	-167.2866	930.935206	687.906565	-188.882988	869.209557	587.300683	-202.564646	856.169238	811.913361	-486.751285	962.285341	727.0628	-475.818785	942.363835	619.8895680000001	-453.508766	766.287552	444.464856	-252.425875	707.657464	490.181386	-214.96317	584.4781809999999	468.139275	-259.610633	476.313964	517.442315	-249.517759	494.66824	481.19843	-325.224862	1004.300162	397.895389	-397.969805	902.069193	312.70538	-422.383792	940.039987	217.992851	-365.670277	456.88503	562.31092	-326.733891	411.463806	354.109789	-255.77853	402.967107	436.817645	-203.212476	795.3773619999999	92.610201	-311.411244	1025.216407	66.861879	-328.239999	959.750812	56.087884	-395.59371	902.070777	1513.788527	-507.19275	924.465748	1507.454571	-186.643101	986.187835	1443.730389	-325.396624	876.314667	1539.645592	-344.312173	817.140505	1481.965137	-509.235818	847.4429689999999	1383.395459	-89.66628799999999	758.635357	1354.316638	-105.618313	748.804036	1307.993511	-53.221829	743.743367	1241.714075	-18.723119	711.571996	1228.767263	-101.327974	798.679717	1405.085832	-572.862064	728.735411	1342.229251	-544.872376	726.211278	1299.607085	-606.763809	708.6220530000001	1224.270839	-633.343447	688.507552	1215.74796	-545.374727	782.54839	1172.009211	-36.885354	956.961673	1141.136801	-127.53155	940.4301390000001	1082.693533	-97.999178	769.412247	1154.70322	-600.046071	935.070948	1175.335527	-542.630731	925.490394	1109.314499	-558.1815340000001	
